<?xml version="1.0" encoding="utf-8"?>
<!-- Generator: Adobe Illustrator 25.0.1, SVG Export Plug-In . SVG Version: 6.00 Build 0)  -->
<svg version="1.1" id="Layer_1" xmlns="http://www.w3.org/2000/svg" xmlns:xlink="http://www.w3.org/1999/xlink" x="0px" y="0px"
	 viewBox="0 0 60.4 61.6" style="enable-background:new 0 0 60.4 61.6;" xml:space="preserve">
<style type="text/css">
	.st0{fill-rule:evenodd;clip-rule:evenodd;fill:#E6E6E6;}
	.st1{filter:url(#Adobe_OpacityMaskFilter);}
	.st2{fill-rule:evenodd;clip-rule:evenodd;fill:#FFFFFF;}
	.st3{mask:url(#mask-2_1_);}
	.st4{fill-rule:evenodd;clip-rule:evenodd;fill:#65C9FF;}
	.st5{filter:url(#Adobe_OpacityMaskFilter_1_);}
	.st6{mask:url(#mask-4_1_);}
	.st7{fill-rule:evenodd;clip-rule:evenodd;fill:#D0C6AC;}
	.st8{filter:url(#Adobe_OpacityMaskFilter_2_);}
	.st9{mask:url(#mask-6_1_);}
	.st10{fill-rule:evenodd;clip-rule:evenodd;fill:#EDB98A;}
	.st11{filter:url(#Adobe_OpacityMaskFilter_3_);}
	.st12{mask:url(#mask-6_2_);fill-rule:evenodd;clip-rule:evenodd;fill-opacity:0.1;}
	.st13{filter:url(#Adobe_OpacityMaskFilter_4_);}
	.st14{mask:url(#react-mask-150_1_);}
	.st15{fill-rule:evenodd;clip-rule:evenodd;fill:#929598;}
	.st16{filter:url(#Adobe_OpacityMaskFilter_5_);}
	.st17{opacity:0.6;mask:url(#react-mask-150_2_);}
	.st18{fill-rule:evenodd;clip-rule:evenodd;fill-opacity:0.16;}
	.st19{fill-rule:evenodd;clip-rule:evenodd;fill-opacity:0.7;}
	.st20{filter:url(#Adobe_OpacityMaskFilter_6_);}
	.st21{mask:url(#react-mask-166_1_);fill-rule:evenodd;clip-rule:evenodd;fill:#FFFFFF;}
	.st22{filter:url(#Adobe_OpacityMaskFilter_7_);}
	.st23{mask:url(#react-mask-166_2_);}
	.st24{fill-rule:evenodd;clip-rule:evenodd;fill:#FF4F6D;}
	.st25{fill-rule:evenodd;clip-rule:evenodd;fill-opacity:0.6;}
	.st26{filter:url(#Adobe_OpacityMaskFilter_8_);}
	.st27{mask:url(#react-mask-96_1_);}
	.st28{fill-rule:evenodd;clip-rule:evenodd;fill:#331B0C;}
	.st29{filter:url(#Adobe_OpacityMaskFilter_9_);}
	.st30{mask:url(#react-mask-125_1_);}
	.st31{fill-rule:evenodd;clip-rule:evenodd;fill:#4A312C;}
	.st32{fill-rule:evenodd;clip-rule:evenodd;fill:#28354B;}
	.st33{filter:url(#Adobe_OpacityMaskFilter_10_);}
	.st34{mask:url(#react-mask-97_1_);}
	.st35{fill:#1D1D1B;}
</style>
<desc>Created with getavataaars.com</desc>
<g id="Avataaar_1_">
	<g id="Avataaar_x2F_Circle" transform="translate(-825.000000, -1100.000000)">
		<g transform="translate(825.000000, 1100.000000)">
			<g id="Circle" transform="translate(12.000000, 40.000000)">
				<g id="Circle-Background">
					<circle id="path-1_1_" class="st0" cx="18.2" cy="-8.5" r="30.2"/>
				</g>
				<defs>
					<filter id="Adobe_OpacityMaskFilter" filterUnits="userSpaceOnUse" x="-12" y="-38.7" width="60.4" height="60.4">
						<feColorMatrix  type="matrix" values="1 0 0 0 0  0 1 0 0 0  0 0 1 0 0  0 0 0 1 0"/>
					</filter>
				</defs>
				<mask maskUnits="userSpaceOnUse" x="-12" y="-38.7" width="60.4" height="60.4" id="mask-2_1_">
					<g class="st1">
						<circle id="path-1_2_" class="st2" cx="18.2" cy="-8.5" r="30.2"/>
					</g>
				</mask>
				<g id="Color_x2F_Palette_x2F_Blue-01" class="st3">
					<rect id="_xD83D__xDD8D_Color" x="-12" y="-38.7" class="st4" width="60.4" height="60.4"/>
				</g>
			</g>
			<g id="Mask">
			</g>
			<defs>
				<filter id="Adobe_OpacityMaskFilter_1_" filterUnits="userSpaceOnUse" x="-3" y="-0.2" width="85" height="71">
					<feColorMatrix  type="matrix" values="1 0 0 0 0  0 1 0 0 0  0 0 1 0 0  0 0 0 1 0"/>
				</filter>
			</defs>
			<mask maskUnits="userSpaceOnUse" x="-3" y="-0.2" width="85" height="71" id="mask-4_1_">
				<g class="st5">
					<path id="path-3_1_" class="st2" d="M0,31.5c0,16.7,13.5,30.2,30.2,30.2s30.2-13.5,30.2-30.2h3V-8.8H-3v40.3H0z"/>
				</g>
			</mask>
			<g id="Avataaar" class="st6">
				<g id="Body" transform="translate(32.000000, 36.000000)">
					<g>
						<path id="path-5_1_" class="st7" d="M4.2,0.6v4.6h1l0,0c10,0,18.1,8.1,18.1,18.1v2.3H-27v-2.3c0-10,8.1-18.1,18.1-18.1l0,0h1
							V0.6c-4.3-2.1-7.5-6.3-8-11.3c-1.5-0.2-2.6-1.5-2.6-3v-3.5c0-1.5,1.1-2.7,2.5-3v-1.6l0,0c0-7.8,6.3-14.1,14.1-14.1l0,0l0,0
							c7.8,0,14.1,6.3,14.1,14.1v1.6c1.4,0.2,2.5,1.5,2.5,3v3.5c0,1.5-1.1,2.8-2.6,3C11.7-5.6,8.6-1.4,4.2,0.6z"/>
					</g>
					<defs>
						<filter id="Adobe_OpacityMaskFilter_2_" filterUnits="userSpaceOnUse" x="-35" y="-35.7" width="66.4" height="61.4">
							<feColorMatrix  type="matrix" values="1 0 0 0 0  0 1 0 0 0  0 0 1 0 0  0 0 0 1 0"/>
						</filter>
					</defs>
					<mask maskUnits="userSpaceOnUse" x="-35" y="-35.7" width="66.4" height="61.4" id="mask-6_1_">
						<g class="st8">
							<path id="path-5_2_" class="st2" d="M4.2,0.6v4.6h1l0,0c10,0,18.1,8.1,18.1,18.1v2.3H-27v-2.3c0-10,8.1-18.1,18.1-18.1l0,0h1
								V0.6c-4.3-2.1-7.5-6.3-8-11.3c-1.5-0.2-2.6-1.5-2.6-3v-3.5c0-1.5,1.1-2.7,2.5-3v-1.6l0,0c0-7.8,6.3-14.1,14.1-14.1l0,0l0,0
								c7.8,0,14.1,6.3,14.1,14.1v1.6c1.4,0.2,2.5,1.5,2.5,3v3.5c0,1.5-1.1,2.8-2.6,3C11.7-5.6,8.6-1.4,4.2,0.6z"/>
						</g>
					</mask>
					<g id="Skin_x2F__xD83D__xDC76__xD83C__xDFFD_-03-Brown" class="st9">
						<g id="Color" transform="translate(-32.000000, 0.000000)">
							<rect x="-3" y="-35.7" class="st10" width="66.4" height="61.4"/>
						</g>
					</g>
					<defs>
						<filter id="Adobe_OpacityMaskFilter_3_" filterUnits="userSpaceOnUse" x="-15.9" y="-15.9" width="28.2" height="19.9">
							<feColorMatrix  type="matrix" values="1 0 0 0 0  0 1 0 0 0  0 0 1 0 0  0 0 0 1 0"/>
						</filter>
					</defs>
					<mask maskUnits="userSpaceOnUse" x="-15.9" y="-15.9" width="28.2" height="19.9" id="mask-6_2_">
						<g class="st11">
							<path id="path-5_3_" class="st2" d="M4.2,0.6v4.6h1l0,0c10,0,18.1,8.1,18.1,18.1v2.3H-27v-2.3c0-10,8.1-18.1,18.1-18.1l0,0h1
								V0.6c-4.3-2.1-7.5-6.3-8-11.3c-1.5-0.2-2.6-1.5-2.6-3v-3.5c0-1.5,1.1-2.7,2.5-3v-1.6l0,0c0-7.8,6.3-14.1,14.1-14.1l0,0l0,0
								c7.8,0,14.1,6.3,14.1,14.1v1.6c1.4,0.2,2.5,1.5,2.5,3v3.5c0,1.5-1.1,2.8-2.6,3C11.7-5.6,8.6-1.4,4.2,0.6z"/>
						</g>
					</mask>
					<path id="Neck-Shadow" class="st12" d="M12.3-15.9v5.8C12.3-2.3,6,4-1.8,4s-14.1-6.3-14.1-14.1v-5.8v3.8C-15.9-4.3-9.6,2-1.8,2
						s14.1-6.3,14.1-14.1V-15.9z"/>
				</g>
				<g id="Clothing_x2F_Shirt-Crew-Neck" transform="translate(0.000000, 170.000000)">
					<g id="Clothes">
						<path id="react-path-149_1_" class="st0" d="M38.7-128.7c9.3,0.8,16.6,8.6,16.6,18.1v2.3H5v-2.3c0-9.6,7.4-17.4,16.9-18.1
							c0,0.1,0,0.2,0,0.3c0,3,3.8,5.4,8.4,5.4s8.4-2.4,8.4-5.4C38.7-128.5,38.7-128.6,38.7-128.7z"/>
					</g>
					<defs>
						<filter id="Adobe_OpacityMaskFilter_4_" filterUnits="userSpaceOnUse" x="-3" y="-136" width="66.4" height="27.7">
							<feColorMatrix  type="matrix" values="1 0 0 0 0  0 1 0 0 0  0 0 1 0 0  0 0 0 1 0"/>
						</filter>
					</defs>
					<mask maskUnits="userSpaceOnUse" x="-3" y="-136" width="66.4" height="27.7" id="react-mask-150_1_">
						<g class="st13">
							<path id="react-path-149_2_" class="st2" d="M38.7-128.7c9.3,0.8,16.6,8.6,16.6,18.1v2.3H5v-2.3c0-9.6,7.4-17.4,16.9-18.1
								c0,0.1,0,0.2,0,0.3c0,3,3.8,5.4,8.4,5.4s8.4-2.4,8.4-5.4C38.7-128.5,38.7-128.6,38.7-128.7z"/>
						</g>
					</mask>
					<g id="Color_x2F_Palette_x2F_Gray-01" class="st14">
						<rect id="_xD83D__xDD8D_Color_1_" x="-3" y="-136" class="st15" width="66.4" height="27.7"/>
					</g>
					<defs>
						<filter id="Adobe_OpacityMaskFilter_5_" filterUnits="userSpaceOnUse" x="20.3" y="-134.8" width="19.9" height="13.5">
							<feColorMatrix  type="matrix" values="1 0 0 0 0  0 1 0 0 0  0 0 1 0 0  0 0 0 1 0"/>
						</filter>
					</defs>
					<mask maskUnits="userSpaceOnUse" x="20.3" y="-134.8" width="19.9" height="13.5" id="react-mask-150_2_">
						<g class="st16">
							<path id="react-path-149_3_" class="st2" d="M38.7-128.7c9.3,0.8,16.6,8.6,16.6,18.1v2.3H5v-2.3c0-9.6,7.4-17.4,16.9-18.1
								c0,0.1,0,0.2,0,0.3c0,3,3.8,5.4,8.4,5.4s8.4-2.4,8.4-5.4C38.7-128.5,38.7-128.6,38.7-128.7z"/>
						</g>
					</mask>
					<g id="Shadowy" class="st17">
						<g id="Hola-_xD83D__xDC4B__xD83C__xDFFC_" transform="translate(92.000000, 4.000000)">
							<ellipse class="st18" cx="-61.7" cy="-132" rx="10" ry="6.8"/>
						</g>
					</g>
				</g>
				<g id="Face" transform="translate(76.000000, 82.000000)">
					<g id="Mouth_x2F_Smile" transform="translate(2.000000, 52.000000)">
						<g id="Mouth">
							<path id="react-path-165_1_" class="st19" d="M-52.6-105.3c0.3,2.4,2.3,4.2,4.8,4.2c2.5,0,4.5-1.9,4.8-4.3
								c0-0.2-0.2-0.5-0.5-0.5c-3.7,0-6.6,0-8.5,0C-52.3-105.8-52.6-105.5-52.6-105.3z"/>
						</g>
						<defs>
							<filter id="Adobe_OpacityMaskFilter_6_" filterUnits="userSpaceOnUse" x="-51.6" y="-108.6" width="7.8" height="4">
								<feColorMatrix  type="matrix" values="1 0 0 0 0  0 1 0 0 0  0 0 1 0 0  0 0 0 1 0"/>
							</filter>
						</defs>
						<mask maskUnits="userSpaceOnUse" x="-51.6" y="-108.6" width="7.8" height="4" id="react-mask-166_1_">
							<g class="st20">
								<path id="react-path-165_2_" class="st2" d="M-52.6-105.3c0.3,2.4,2.3,4.2,4.8,4.2c2.5,0,4.5-1.9,4.8-4.3
									c0-0.2-0.2-0.5-0.5-0.5c-3.7,0-6.6,0-8.5,0C-52.3-105.8-52.6-105.5-52.6-105.3z"/>
							</g>
						</mask>
						<path id="Teeth" class="st21" d="M-50.3-108.6h5.3c0.7,0,1.3,0.6,1.3,1.3v1.5c0,0.7-0.6,1.3-1.3,1.3h-5.3
							c-0.7,0-1.3-0.6-1.3-1.3v-1.5C-51.6-108-51-108.6-50.3-108.6z"/>
						<defs>
							<filter id="Adobe_OpacityMaskFilter_7_" filterUnits="userSpaceOnUse" x="-51.8" y="-103.1" width="8.1" height="5.5">
								<feColorMatrix  type="matrix" values="1 0 0 0 0  0 1 0 0 0  0 0 1 0 0  0 0 0 1 0"/>
							</filter>
						</defs>
						<mask maskUnits="userSpaceOnUse" x="-51.8" y="-103.1" width="8.1" height="5.5" id="react-mask-166_2_">
							<g class="st22">
								<path id="react-path-165_3_" class="st2" d="M-52.6-105.3c0.3,2.4,2.3,4.2,4.8,4.2c2.5,0,4.5-1.9,4.8-4.3
									c0-0.2-0.2-0.5-0.5-0.5c-3.7,0-6.6,0-8.5,0C-52.3-105.8-52.6-105.5-52.6-105.3z"/>
							</g>
						</mask>
						<g id="Tongue" class="st23">
							<g transform="translate(38.000000, 24.000000)">
								<circle class="st24" cx="-87.1" cy="-124.3" r="2.8"/>
								<circle class="st24" cx="-84.6" cy="-124.3" r="2.8"/>
							</g>
						</g>
					</g>
					<g id="Nose_x2F_Default" transform="translate(28.000000, 40.000000)">
						<path id="Nose" class="st18" d="M-76.8-98.1c0,1.1,1.4,2,3,2l0,0c1.7,0,3-0.9,3-2"/>
					</g>
					<g id="Eyes_x2F_Happy-_xD83D__xDE01_" transform="translate(0.000000, 8.000000)">
						<path id="Squint" class="st25" d="M-55.8-70.5c0.5-1,1.5-1.6,2.7-1.6c1.2,0,2.3,0.7,2.7,1.6c0.1,0.3-0.1,0.5-0.3,0.3
							c-0.6-0.5-1.5-0.9-2.5-0.9c-0.9,0-1.8,0.3-2.4,0.8C-55.7-70-56-70.2-55.8-70.5z"/>
						<path id="Squint_1_" class="st25" d="M-41.2-70.5c0.5-1,1.5-1.6,2.7-1.6c1.2,0,2.3,0.7,2.7,1.6c0.1,0.3-0.1,0.5-0.3,0.3
							c-0.6-0.5-1.5-0.9-2.5-0.9c-0.9,0-1.8,0.3-2.4,0.8C-41.1-70-41.4-70.2-41.2-70.5z"/>
					</g>
					<g id="Eyebrow_x2F_Natural_x2F_Default-Natural">
						<path id="Eyebrow" class="st25" d="M-53.2-68.6c-1.5,0.1-3.8,1.1-3.8,2.6c0,0,0.1,0.1,0.1,0c0.7-0.7,5.6-1.5,7.3-1.1
							c0.2,0,0.3-0.1,0.2-0.2C-50.2-68.3-51.9-68.7-53.2-68.6"/>
						<path id="Eyebrow_1_" class="st25" d="M-38.1-68.6c1.5,0.1,3.8,1.1,3.8,2.6c0,0-0.1,0.1-0.1,0c-0.7-0.7-5.6-1.5-7.3-1.1
							c-0.2,0-0.3-0.1-0.2-0.2C-41.2-68.3-39.5-68.7-38.1-68.6"/>
					</g>
				</g>
				<g id="Top">
					<g id="Mask_1_">
					</g>
					<defs>
						<filter id="Adobe_OpacityMaskFilter_8_" filterUnits="userSpaceOnUse" x="1" y="-0.2" width="81" height="71">
							<feColorMatrix  type="matrix" values="1 0 0 0 0  0 1 0 0 0  0 0 1 0 0  0 0 0 1 0"/>
						</filter>
					</defs>
					<mask maskUnits="userSpaceOnUse" x="1" y="-0.2" width="81" height="71" id="react-mask-96_1_">
						<g class="st26">
							<rect id="react-path-98_1_" x="-3" y="-8.8" class="st2" width="66.4" height="70.4"/>
						</g>
					</mask>
					<g id="Top_x2F_Short-Hair_x2F_The-Caesar-_x2B_-Side-Part" class="st27">
						<g transform="translate(-1.000000, 0.000000)">
							<g id="Facial-Hair_x2F_Beard-Light" transform="translate(49.000000, 72.000000)">
								<g id="Lite-Beard">
									<path id="react-path-126_1_" class="st28" d="M-13.4-38c-0.6,0.6-1.3,0.8-2.2,0.7c-0.1,0-0.7-1.1-2.2-1.1
										c-1.5,0-2.1,1.1-2.2,1.1c-0.9,0.2-1.5-0.1-2.2-0.7c-1.2-1.1-2.2-2.6-1.6-4.2c0.3-0.9,0.8-1.8,1.7-2.1c1-0.3,2.4,0,3.3-0.2
										c0.3-0.1,0.7-0.2,0.9-0.4c0.2,0.2,0.6,0.3,0.9,0.4c1,0.2,2.4-0.1,3.3,0.2c0.9,0.3,1.4,1.2,1.7,2.1
										C-11.2-40.6-12.2-39.1-13.4-38 M-3.7-56.1c-0.9,2.1-0.5,4.7-0.7,7c-0.1,1.8-0.5,4.5-2.1,5.7c-0.8,0.6-2.3,1.6-3.4,1.3
										c-0.7-0.2-0.8-2.3-1.8-3.1c-1.1-0.9-2.5-1.3-3.9-1.2c-0.6,0-1.8,0-2.3,0.5c-0.5-0.5-1.7-0.5-2.3-0.5
										c-1.4-0.1-2.8,0.3-3.9,1.2c-1,0.8-1,2.9-1.8,3.1c-1.1,0.3-2.6-0.7-3.4-1.3c-1.6-1.2-2-3.9-2.1-5.7c-0.2-2.2,0.2-4.8-0.7-7
										c-0.4,0-0.1,4.1-0.1,4.1v5.1c0,3.8,2.4,9.6,7.7,11.8c1.3,0.5,4.3,1.4,6.5,1.4s5.2-0.8,6.5-1.3c5.3-2.2,7.7-8,7.7-11.9v-5.1
										C-3.6-52.1-3.3-56.1-3.7-56.1"/>
								</g>
								<defs>
									<filter id="Adobe_OpacityMaskFilter_9_" filterUnits="userSpaceOnUse" x="-47" y="-62.7" width="66.4" height="61.4">
										<feColorMatrix  type="matrix" values="1 0 0 0 0  0 1 0 0 0  0 0 1 0 0  0 0 0 1 0"/>
									</filter>
								</defs>
								<mask maskUnits="userSpaceOnUse" x="-47" y="-62.7" width="66.4" height="61.4" id="react-mask-125_1_">
									<g class="st29">
										<path id="react-path-126_2_" class="st2" d="M-13.4-38c-0.6,0.6-1.3,0.8-2.2,0.7c-0.1,0-0.7-1.1-2.2-1.1
											c-1.5,0-2.1,1.1-2.2,1.1c-0.9,0.2-1.5-0.1-2.2-0.7c-1.2-1.1-2.2-2.6-1.6-4.2c0.3-0.9,0.8-1.8,1.7-2.1c1-0.3,2.4,0,3.3-0.2
											c0.3-0.1,0.7-0.2,0.9-0.4c0.2,0.2,0.6,0.3,0.9,0.4c1,0.2,2.4-0.1,3.3,0.2c0.9,0.3,1.4,1.2,1.7,2.1
											C-11.2-40.6-12.2-39.1-13.4-38 M-3.7-56.1c-0.9,2.1-0.5,4.7-0.7,7c-0.1,1.8-0.5,4.5-2.1,5.7c-0.8,0.6-2.3,1.6-3.4,1.3
											c-0.7-0.2-0.8-2.3-1.8-3.1c-1.1-0.9-2.5-1.3-3.9-1.2c-0.6,0-1.8,0-2.3,0.5c-0.5-0.5-1.7-0.5-2.3-0.5
											c-1.4-0.1-2.8,0.3-3.9,1.2c-1,0.8-1,2.9-1.8,3.1c-1.1,0.3-2.6-0.7-3.4-1.3c-1.6-1.2-2-3.9-2.1-5.7c-0.2-2.2,0.2-4.8-0.7-7
											c-0.4,0-0.1,4.1-0.1,4.1v5.1c0,3.8,2.4,9.6,7.7,11.8c1.3,0.5,4.3,1.4,6.5,1.4s5.2-0.8,6.5-1.3c5.3-2.2,7.7-8,7.7-11.9
											v-5.1C-3.6-52.1-3.3-56.1-3.7-56.1"/>
									</g>
								</mask>
								<g id="Color_x2F_Hair_x2F_Brown" class="st30">
									<g id="Color_1_" transform="translate(-32.000000, 0.000000)">
										<rect x="-15" y="-62.7" class="st31" width="66.4" height="61.4"/>
									</g>
								</g>
							</g>
							<g id="Hair" transform="translate(75.000000, 34.000000)">
								<g id="Caesar">
									<path id="react-path-99_1_" class="st32" d="M-37.8-28.1c-1.8-0.2-3.9-0.3-6-0.3c-4.9,0-9.7,0.6-10.6,1.2
										c-2.4,1.8-3.4,8.7-3.3,9.1c-0.1,0.3-0.4,0.4-0.5,0c-0.2-2.6,0-15.7,14.3-15.9s14.5,13.3,14.3,15.9c-0.1,0.4-0.4,0.3-0.5,0
										c0.1-0.4-0.8-7.2-3.3-9.1c-0.4-0.3-1.8-0.6-3.7-0.8l0.9-2.2L-37.8-28.1z"/>
								</g>
								<defs>
									<filter id="Adobe_OpacityMaskFilter_10_" filterUnits="userSpaceOnUse" x="-58.4" y="-34.2" width="66.4" height="70.4">
										<feColorMatrix  type="matrix" values="1 0 0 0 0  0 1 0 0 0  0 0 1 0 0  0 0 0 1 0"/>
									</filter>
								</defs>
								<mask maskUnits="userSpaceOnUse" x="-58.4" y="-34.2" width="66.4" height="70.4" id="react-mask-97_1_">
									<g class="st33">
										<path id="react-path-99_2_" class="st2" d="M-37.8-28.1c-1.8-0.2-3.9-0.3-6-0.3c-4.9,0-9.7,0.6-10.6,1.2
											c-2.4,1.8-3.4,8.7-3.3,9.1c-0.1,0.3-0.4,0.4-0.5,0c-0.2-2.6,0-15.7,14.3-15.9s14.5,13.3,14.3,15.9c-0.1,0.4-0.4,0.3-0.5,0
											c0.1-0.4-0.8-7.2-3.3-9.1c-0.4-0.3-1.8-0.6-3.7-0.8l0.9-2.2L-37.8-28.1z"/>
									</g>
								</mask>
								<g id="Skin_x2F__xD83D__xDC76__xD83C__xDFFD_-03-Brown_1_" class="st34">
									<g id="Color_2_" transform="translate(0.000000, 0.000000) ">
										<rect x="-58.4" y="-34.2" class="st31" width="66.4" height="70.4"/>
									</g>
								</g>
							</g>
						</g>
					</g>
				</g>
			</g>
		</g>
	</g>
</g>
<path class="st35" d="M44.3,17.1c-0.4-0.3-4.2-1.4-5.6-1.4c0,0-3.2-0.3-4.8,0.3c-1.6,0.6-1.9,0.6-3.5,0.6c0,0-0.1,0-0.2,0
	c-0.1,0-0.2,0-0.2,0c-1.6-0.1-1.9,0-3.5-0.6c-1.6-0.6-4.8-0.3-4.8-0.3c-1.4,0-5.2,1.2-5.6,1.4c-0.4,0.3,0,0.7,0,0.7
	c1.6-0.1,1.8,2.3,1.8,2.3c0.2,0.6,0.5,1.2,0.9,1.8c0.5,0.7,1.3,1.2,2.2,1.5c0.9,0.3,1.6,0.3,2.6,0.3c1.2,0,2.3-0.3,3.2-0.9
	c1.7-1.2,2.2-4.4,2.2-4.4c-0.2-0.1-0.2-0.5-0.2-0.5c0-0.5,1-0.6,1.3-0.6c0,0,0.1,0,0.2,0c0.1,0,0.1,0,0.2,0c0.3,0,1.3,0.1,1.3,0.6
	c0,0,0,0.4-0.2,0.5c0,0,0.6,3.2,2.2,4.4c0.9,0.7,2,0.9,3.2,0.9c0.9,0,1.7,0,2.6-0.3c0.9-0.3,1.7-0.8,2.2-1.5
	c0.4-0.5,0.7-1.1,0.9-1.8c0,0,0.2-2.4,1.8-2.3C44.3,17.8,44.7,17.3,44.3,17.1z M28,19.5c-0.3,1.8-0.8,2.8-2.2,3.3
	c-1.4,0.5-2.5,0.5-2.5,0.5s-1.1,0.1-2.5-0.5c-1.4-0.5-1.9-1.5-2.2-3.3c-0.1-0.3-0.1-0.6-0.1-0.9c0-0.9,0.5-1.8,1.4-2.2
	c0.6-0.2,1.4-0.3,2.1-0.4c0.4,0,0.8,0,1.3,0c0.1,0,0.3,0,0.4,0c1.1,0.1,2.4,0.1,3.4,0.6c0.2,0.1,0.3,0.2,0.5,0.4
	C28.2,17.7,28.1,18.7,28,19.5z M41.8,19.5c-0.3,1.8-0.8,2.8-2.2,3.3c-1.4,0.5-2.5,0.5-2.5,0.5s-1.2,0.1-2.5-0.5
	c-1.4-0.5-1.9-1.5-2.2-3.3c-0.1-0.9-0.2-1.8,0.5-2.5c0.1-0.1,0.3-0.3,0.5-0.4c0.9-0.5,2.3-0.5,3.4-0.6c0.1,0,0.3,0,0.4,0
	c0.4,0,0.8,0,1.3,0c0.6,0,1.5,0.1,2.1,0.4c0.9,0.4,1.4,1.3,1.4,2.2C41.9,18.9,41.9,19.2,41.8,19.5z"/>
</svg>
